<svg width="64" height="64" viewBox="0 0 64 64" fill="none" xmlns="http://www.w3.org/2000/svg">
  <defs>
    <linearGradient id="coinSide" x1="13" y1="32" x2="22" y2="32" gradientUnits="userSpaceOnUse">
      <stop stop-color="#E6A842"/>
      <stop offset="1" stop-color="#F6C867"/>
    </linearGradient>
    <linearGradient id="coinFill" x1="18" y1="14" x2="50" y2="50" gradientUnits="userSpaceOnUse">
      <stop stop-color="#F3D48B"/>
      <stop offset="0.55" stop-color="#D99432"/>
      <stop offset="1" stop-color="#B96E18"/>
    </linearGradient>
    <linearGradient id="coinInner" x1="24" y1="18" x2="44" y2="44" gradientUnits="userSpaceOnUse">
      <stop stop-color="#F3B45F"/>
      <stop offset="1" stop-color="#D58427"/>
    </linearGradient>
    <filter id="coinShadow" x="4" y="7" width="56" height="50" filterUnits="userSpaceOnUse" color-interpolation-filters="sRGB">
      <feFlood flood-opacity="0" result="BackgroundImageFix"/>
      <feGaussianBlur in="SourceGraphic" stdDeviation="0.8"/>
    </filter>
  </defs>
  <g filter="url(#coinShadow)">
    <ellipse cx="20" cy="32" rx="7" ry="18" fill="url(#coinSide)"/>
    <ellipse cx="35" cy="32" rx="19" ry="22" fill="url(#coinFill)"/>
    <ellipse cx="35" cy="32" rx="14" ry="17" fill="url(#coinInner)"/>
    <path d="M31.1 21.2C34.15 20.55 37.95 21.05 40.1 22.9C42.2 24.72 42.55 27.1 40.9 29.25C39.58 30.97 37.35 31.95 34.6 32.12V42.55H31.78V20.95L31.1 21.2ZM34.6 29.38C36.55 29.23 38 28.65 38.85 27.65C39.72 26.62 39.55 25.4 38.5 24.45C37.22 23.28 35.05 22.95 33.25 23.28L34.6 29.38Z" fill="#FCECCE"/>
  </g>
</svg>
